<svg width="24" height="24" viewBox="0 0 24 24" fill="none" xmlns="http://www.w3.org/2000/svg">
<path d="M18.5596 11.8286C18.5596 10.9002 18.3874 10.0243 18.043 9.20068C17.6836 8.39209 17.2007 7.68457 16.5942 7.07812C15.9878 6.47168 15.2803 5.98877 14.4717 5.62939C13.6631 5.28499 12.7946 5.11279 11.8662 5.11279C10.9378 5.11279 10.0618 5.28499 9.23828 5.62939C8.42969 5.98877 7.72217 6.47168 7.11572 7.07812C6.50928 7.68457 6.02637 8.39209 5.66699 9.20068C5.32259 10.0243 5.15039 10.9002 5.15039 11.8286C5.15039 12.757 5.32259 13.6255 5.66699 14.4341C6.02637 15.2427 6.50928 15.9502 7.11572 16.5566C7.72217 17.1631 8.42969 17.646 9.23828 18.0054C10.0618 18.3498 10.9378 18.522 11.8662 18.522C12.7946 18.522 13.6631 18.3498 14.4717 18.0054C15.2803 17.646 15.9878 17.1631 16.5942 16.5566C17.2007 15.9502 17.6836 15.2427 18.043 14.4341C18.3874 13.6255 18.5596 12.757 18.5596 11.8286ZM17.0771 18.0728C16.3734 18.6567 15.576 19.1172 14.6851 19.4541C13.7941 19.791 12.8545 19.9595 11.8662 19.9595C10.7432 19.9595 9.6875 19.7498 8.69922 19.3306C7.69596 18.8963 6.82747 18.3123 6.09375 17.5786C5.36003 16.8449 4.78353 15.9839 4.36426 14.9956C3.93001 14.0073 3.71289 12.9517 3.71289 11.8286C3.71289 10.7056 3.93001 9.64242 4.36426 8.63916C4.78353 7.65088 5.36003 6.78988 6.09375 6.05615C6.82747 5.32243 7.69596 4.73844 8.69922 4.3042C9.6875 3.88493 10.7432 3.67529 11.8662 3.67529C12.9893 3.67529 14.0449 3.88493 15.0332 4.3042C16.0215 4.73844 16.8825 5.32243 17.6162 6.05615C18.3499 6.78988 18.9339 7.65088 19.3682 8.63916C19.7874 9.64242 19.9971 10.7056 19.9971 11.8286C19.9971 12.8169 19.8286 13.7565 19.4917 14.6475C19.1548 15.5384 18.6943 16.3358 18.1104 17.0396L21.1426 20.0718C21.2324 20.1766 21.2773 20.2926 21.2773 20.4199C21.2773 20.5472 21.2324 20.6558 21.1426 20.7456L20.7832 21.105C20.6934 21.1948 20.5848 21.2397 20.4575 21.2397C20.3302 21.2397 20.2142 21.1948 20.1094 21.105L17.0771 18.0728Z" fill="white"/>
</svg>
