<svg width="94" height="27" viewBox="0 0 94 27" fill="none" xmlns="http://www.w3.org/2000/svg">
<g id="Clip path group">
<mask id="mask0_3163_940" style="mask-type:luminance" maskUnits="userSpaceOnUse" x="0" y="0" width="94" height="27">
<g id="a">
<path id="Vector" d="M93.5 0.160156H0.5V26.1602H93.5V0.160156Z" fill="white"/>
</g>
</mask>
<g mask="url(#mask0_3163_940)">
<g id="Group">
<path id="Vector_2" fill-rule="evenodd" clip-rule="evenodd" d="M14.125 4.16016H0.5V21.2853H14.125V4.16016ZM3.79986 7.26034V18.6852L7.62489 18.66C8.77481 18.66 9.67472 18.3602 10.3 17.8104C10.9247 17.2606 11.2251 16.4351 11.2251 15.335C11.2479 14.7552 11.1001 14.1816 10.8 13.685C10.6576 13.4455 10.4658 13.2391 10.2373 13.0796C10.0089 12.92 9.74897 12.8111 9.47504 12.76C9.9242 12.5639 10.3003 12.2314 10.55 11.8097C10.7749 11.36 10.9001 10.86 10.9001 10.36C10.9001 9.33533 10.55 8.56015 9.90011 8.03498C9.2502 7.51035 8.32513 7.26034 7.15004 7.26034H3.79986ZM5.87485 16.9099V13.6353H7.60027C7.97501 13.6101 8.32513 13.7851 8.54997 14.0849C8.77173 14.4626 8.87627 14.8977 8.8503 15.335C8.87743 15.756 8.75327 16.173 8.50018 16.5106C8.36386 16.6483 8.19963 16.7551 8.01855 16.824C7.83747 16.8929 7.64373 16.9222 7.45038 16.9099H5.87485ZM7.10026 12.0854H5.87485V9.035H7.00015C7.40005 9.01038 7.82511 9.13511 8.1249 9.41028C8.40007 9.73523 8.5248 10.1603 8.50018 10.5854C8.54997 10.9848 8.40007 11.3852 8.15007 11.685C8.01384 11.8229 7.84965 11.9299 7.66857 11.999C7.48748 12.0681 7.2937 12.0975 7.10026 12.0854ZM27.2004 21.2602H28.0002V4.16016H27.2004V21.2602ZM41.1001 21.2602H41.8999V4.16016H41.1001V21.2602ZM54.9751 21.2602H55.7749V4.16016H54.9751V21.2602ZM68.9 21.2602H69.6752V4.16016H68.9V21.2602ZM82.8002 21.2602H83.6V4.16016H82.8002V21.2602ZM22.8754 18.0352C23.4006 17.7349 23.8502 17.3104 24.15 16.7852H24.2004V12.6604H20.65V13.8103H22.6002V16.4351C22.4503 16.7103 22.2003 16.9603 21.9251 17.1353C21.5252 17.335 21.1002 17.4351 20.6505 17.41C20.3193 17.4203 19.99 17.3561 19.687 17.222C19.384 17.0879 19.115 16.8874 18.8999 16.6353C18.4754 16.1353 18.25 15.3853 18.25 14.4104V11.0099C18.25 10.0602 18.4502 9.33533 18.8501 8.83477C19.048 8.59024 19.3001 8.39518 19.5865 8.26508C19.8729 8.13499 20.1857 8.07343 20.5001 8.0853C21.1751 8.0853 21.6998 8.28498 22.0499 8.6351C22.4 8.98522 22.5751 9.53501 22.6002 10.2599H24.1003L24.1254 10.2101C24.0751 9.13566 23.7501 8.31015 23.1254 7.73519C22.5001 7.16023 21.6254 6.85989 20.4503 6.85989C19.3004 6.83528 18.3753 7.21001 17.6756 7.93541C16.9754 8.66026 16.6252 9.68545 16.6252 11.0099V14.3853C16.6252 15.7349 17 16.7601 17.7254 17.4855C18.4502 18.2103 19.4251 18.585 20.6253 18.585C21.4 18.6102 22.2003 18.4351 22.8754 18.0352ZM34.5004 9.51039L35.8998 14.5105H33.0004L34.4501 9.51039H34.5004ZM36.2747 15.76H32.6508L31.8247 18.6354H30.2L33.6995 7.23463H35.2499L38.7248 18.6348H37.1L36.2747 15.76ZM48.4252 16.5352L45.7501 7.23518L43.6997 7.23463V18.6354H45.2752V14.26L45.15 9.88513H45.1751L47.9252 18.6348H48.9756L51.6999 9.85996L51.7502 9.88513L51.625 14.26V18.6354H53.1999V7.23518H51.1501L48.475 16.5352H48.4252ZM61.4999 18.6354H63.0749V7.23463H61.4999V18.6354ZM78.5999 18.6354H80.2V7.23518H78.5999V15.6845H78.5501L74.2251 7.23463H72.6501V18.6354H74.2251V10.1603H74.2754L78.5999 18.6354ZM92.2249 18.1102C92.7501 17.8104 93.1752 17.3853 93.5001 16.8602V12.7107H89.9749V13.8601H91.9251V16.4597C91.7752 16.7354 91.5252 16.9849 91.2501 17.16C90.8502 17.3602 90.4251 17.4603 89.9749 17.4351C89.6438 17.4454 89.3146 17.381 89.0118 17.2469C88.709 17.1127 88.4402 16.9121 88.2254 16.6599C87.8003 16.1605 87.5749 15.4099 87.5749 14.4351V11.0351C87.5749 10.0853 87.7751 9.35995 88.175 8.85994C88.3728 8.6153 88.625 8.42014 88.9114 8.28995C89.1978 8.15975 89.5106 8.09811 89.825 8.10992C90.5 8.10992 91.0252 8.28498 91.3753 8.66026C91.7249 9.035 91.9 9.56017 91.9251 10.2851H93.4252L93.4503 10.2353C93.4 9.16027 93.075 8.33476 92.4503 7.76035C91.825 7.18539 90.9503 6.88561 89.7752 6.88561C88.6499 6.88561 87.7254 7.26034 87.0251 7.98519C86.3249 8.71005 85.9753 9.73523 85.9753 11.0602V14.4854C85.9753 15.835 86.3501 16.8602 87.0749 17.585C87.8249 18.3099 88.7752 18.66 89.9749 18.66C90.75 18.6852 91.5498 18.5101 92.2249 18.1102Z" fill="#FFCD00"/>
</g>
</g>
</g>
</svg>
