<svg width="94" height="27" viewBox="0 0 94 27" fill="none" xmlns="http://www.w3.org/2000/svg">
<g id="Clip path group">
<mask id="mask0_3163_964" style="mask-type:luminance" maskUnits="userSpaceOnUse" x="0" y="0" width="94" height="27">
<g id="a">
<path id="Vector" d="M93.5 0.160156H0.5V26.1602H93.5V0.160156Z" fill="white"/>
</g>
</mask>
<g mask="url(#mask0_3163_964)">
<g id="Group">
<path id="Vector_2" d="M54.1557 11.5566L54.0236 12.3811C53.5148 11.8077 52.7309 11.3955 51.5029 11.3955C49.3051 11.3955 47.7461 13.0677 47.7461 15.4259C47.7461 17.784 49.3051 19.4729 51.5029 19.4729C52.6417 19.4729 53.5061 19.0854 54.0236 18.4873L54.1557 19.3111H56.0994V11.5566H54.1557ZM51.9311 17.6156C50.695 17.6156 49.8306 16.6459 49.8306 15.4179C49.8306 14.1898 50.695 13.2535 51.9311 13.2535C53.1671 13.2535 54.0388 14.1825 54.0388 15.4179C54.0388 16.6532 53.1504 17.6156 51.9311 17.6156Z" fill="white"/>
<path id="Vector_3" d="M62.9797 13.059V11.5566H56.986V13.2854H60.6128L56.9453 17.8174V19.3118H63.2221V17.5829H59.3122L62.9797 13.059Z" fill="white"/>
<path id="Vector_4" d="M69.7476 8.16016V12.4954C69.2323 11.8495 68.4317 11.3958 67.1891 11.3958C64.9914 11.3958 63.4316 13.0681 63.4316 15.4255C63.4316 17.7829 64.9914 19.4726 67.1891 19.4726C68.3272 19.4726 69.1902 19.085 69.7084 18.4891L69.8398 19.3129H71.7857V8.16016H69.7476ZM67.6159 17.6145C66.3806 17.6145 65.5147 16.647 65.5147 15.4168C65.5147 14.1865 66.3806 13.2532 67.6159 13.2532C68.8512 13.2532 69.7237 14.1822 69.7237 15.4168C69.7237 16.6514 68.8374 17.6145 67.6159 17.6145Z" fill="white"/>
<path id="Vector_5" d="M78.9833 11.5566L78.8498 12.3811C78.341 11.8077 77.5571 11.3955 76.329 11.3955C74.1313 11.3955 72.5723 13.0677 72.5723 15.4259C72.5723 17.784 74.1313 19.4729 76.329 19.4729C77.4678 19.4729 78.3323 19.0854 78.8498 18.4873L78.9833 19.3111H80.9263V11.5566H78.9833ZM76.758 17.6156C75.5219 17.6156 74.6575 16.6459 74.6575 15.4179C74.6575 14.1898 75.5219 13.2535 76.758 13.2535C77.994 13.2535 78.8657 14.1825 78.8657 15.4179C78.8657 16.6532 77.9773 17.6156 76.758 17.6156Z" fill="white"/>
<path id="Vector_6" d="M86.32 11.395C85.1645 11.395 84.3327 11.9117 83.9292 12.4532L83.7964 11.5568H81.918V19.3121H83.9858V14.9739C83.9858 13.8997 84.7936 13.3176 85.7067 13.3176C86.6197 13.3176 87.3143 13.899 87.3143 14.9739V19.3121H89.3822V14.4412C89.3822 12.5751 88.1135 11.395 86.32 11.395Z" fill="white"/>
<path id="Vector_7" d="M92.7832 8.16016L92.2367 9.61032L91.6844 8.16016H90.8867V10.4581H91.4333V8.82935H91.4449L92.0248 10.4581H92.4429L93.0235 8.82935H93.0344V10.4581H93.5809V8.16016H92.7832Z" fill="white"/>
<path id="Vector_8" d="M88.7168 8.60072H89.386V10.4581H89.9325V8.60072H90.6024V8.16016H88.7168V8.60072Z" fill="white"/>
<path id="Vector_9" d="M30.4812 8.16016H1.71531C0.634589 8.16016 0.0938649 9.46661 0.857413 10.2309L9.517 18.8905C10.2835 19.6569 11.5253 19.6569 12.291 18.8905L18.3697 12.8119C19.0998 12.0817 20.3489 12.5985 20.3489 13.632V18.0224C20.3489 19.3129 21.9094 19.9596 22.8225 19.0465L31.4262 10.4428C32.2688 9.60016 31.6729 8.16016 30.4812 8.16016Z" fill="white"/>
<path id="Vector_10" d="M33.543 8.16016H35.5818V16.3582L41.2322 8.16016H42.8667V16.3582L48.5178 8.16016H50.8839L43.1084 19.3122L40.8308 19.3115V12.1311L35.8242 19.3122H33.543V8.16016Z" fill="white"/>
</g>
</g>
</g>
</svg>
