<svg width="94" height="27" viewBox="0 0 94 27" fill="none" xmlns="http://www.w3.org/2000/svg">
<g id="Component 2" clip-path="url(#clip0_3163_1298)">
<path id="Vector" fill-rule="evenodd" clip-rule="evenodd" d="M14.5938 16.668V15.3548H18.1365V16.883C18.1365 18.2817 18.6889 18.9814 19.793 18.9814H19.807C20.9011 18.9814 21.449 18.284 21.449 16.8898C21.449 16.0932 21.2132 15.3465 20.7401 14.6491C20.2678 13.9516 19.7029 13.314 19.0454 12.7362L17.2697 10.9437C16.5359 10.3167 15.9219 9.5397 15.4278 8.61357C14.9329 7.68669 14.6855 6.66057 14.6855 5.53527C14.6855 3.8034 15.1524 2.47512 16.0862 1.54899C17.0191 0.622847 18.2875 0.160156 19.8896 0.160156C21.4917 0.160156 22.722 0.622847 23.581 1.54823C24.44 2.47364 24.8695 3.80188 24.8695 5.53299V6.21983H21.6022V5.32476C21.6022 3.92154 21.0248 3.21955 19.8693 3.21955C18.7138 3.21955 18.1365 3.9223 18.1365 5.32628C18.1365 5.9139 18.2626 6.4743 18.5139 7.00742C18.7653 7.54053 19.0912 8.02063 19.492 8.44923C19.8927 8.87711 20.3347 9.30042 20.817 9.71844C21.2996 10.1372 21.7765 10.5757 22.2464 11.0339C22.7164 11.492 23.1515 11.9819 23.5507 12.5052C23.949 13.0277 24.2735 13.6457 24.5241 14.3575C24.7746 15.0701 24.8998 15.844 24.8998 16.6808C24.8998 18.4082 24.4603 19.7334 23.581 20.6565C22.7017 21.5796 21.4606 22.0416 19.8576 22.0416C18.2547 22.0416 16.9763 21.5788 16.0232 20.6535C15.07 19.7281 14.5938 18.3991 14.5938 16.668Z" fill="white"/>
<path id="Vector_2" fill-rule="evenodd" clip-rule="evenodd" d="M30.3132 10.7122H31.9542C32.516 10.7122 32.9378 10.5577 33.2195 10.2495C33.5004 9.94131 33.6412 9.41877 33.6412 8.68196V5.4734C33.6412 4.73658 33.5004 4.21709 33.2195 3.91341C32.9378 3.60976 32.516 3.45828 31.9542 3.45828H30.3132V10.7122ZM26.8623 21.8017V0.398926H31.9465C35.3764 0.398926 37.0921 2.16715 37.0921 5.70283V8.48278C37.0921 12.0086 35.378 13.7723 31.9504 13.7723H30.3132V21.8017H26.8623Z" fill="white"/>
<path id="Vector_3" fill-rule="evenodd" clip-rule="evenodd" d="M42.153 10.0398H43.5023C44.1979 10.0398 44.7169 9.86561 45.0593 9.51728C45.4017 9.16895 45.5729 8.58734 45.5729 7.77102V5.66657C45.583 4.19442 45.0002 3.45761 43.8244 3.45761H42.153V10.0398ZM38.7021 21.801V0.397461H43.9093C45.6849 0.397461 46.982 0.801086 47.7983 1.6076C48.6153 2.41406 49.0238 3.65373 49.0238 5.32654V7.01372C49.0238 9.21439 48.2706 10.663 46.7641 11.3597C48.2908 11.9875 49.0542 13.5059 49.0542 15.9155V19.3429C49.0542 20.4356 49.1771 21.255 49.4222 21.801H45.9238C45.7207 21.1952 45.6141 20.3213 45.604 19.1786V15.8261C45.604 14.853 45.4274 14.1548 45.0749 13.7331C44.7216 13.3105 44.1466 13.0999 43.349 13.0999H42.153V21.801H38.7021Z" fill="white"/>
<path id="Vector_4" fill-rule="evenodd" clip-rule="evenodd" d="M51.3242 21.802H54.7752V0.398438H51.3242V21.802Z" fill="white"/>
<path id="Vector_5" fill-rule="evenodd" clip-rule="evenodd" d="M60.7407 18.7423H62.7195C63.3225 18.7423 63.7723 18.5855 64.069 18.272C64.3652 17.9585 64.5139 17.414 64.5139 16.6378V14.7719C64.5139 13.7966 64.3426 13.1203 63.9997 12.7424C63.6572 12.3638 63.0878 12.1752 62.2901 12.1752H60.7407V18.7423ZM60.7407 9.11512H62.0964C62.7944 9.11512 63.3156 8.94096 63.6597 8.59259C64.0042 8.24426 64.1763 7.66721 64.1763 6.86147V5.66724C64.1861 4.19513 63.6011 3.45828 62.42 3.45828H60.7407V9.11512ZM57.29 21.8024V0.398926H62.5048C64.2836 0.398926 65.5823 0.801794 66.4 1.6075C67.2177 2.41325 67.627 3.65216 67.627 5.3242V6.08526C67.627 8.28436 66.8934 9.72246 65.4002 10.3987C67.1183 11.0552 67.9642 12.5834 67.9642 14.9809V16.7272C67.9642 18.3788 67.5197 19.6381 66.6303 20.5037C65.74 21.3693 64.4368 21.8024 62.7195 21.8024H57.29Z" fill="white"/>
<path id="Vector_6" fill-rule="evenodd" clip-rule="evenodd" d="M70.0352 21.802V0.398438H79.4517V3.45858H73.486V9.41374H78.2247V12.4731H73.486V18.7418H79.4517V21.802H70.0352Z" fill="white"/>
<path id="Vector_7" fill-rule="evenodd" clip-rule="evenodd" d="M14.5 26.16H79.5V23.1885H14.5V26.16Z" fill="white"/>
</g>
<defs>
<clipPath id="clip0_3163_1298">
<rect width="93" height="26" fill="white" transform="translate(0.5 0.160156)"/>
</clipPath>
</defs>
</svg>
