<svg width="94" height="27" viewBox="0 0 94 27" fill="none" xmlns="http://www.w3.org/2000/svg">
<g id="Component 2" clip-path="url(#clip0_3163_1019)">
<path id="Vector" d="M15.9116 25.7224C22.7663 25.7224 28.3231 20.0001 28.3231 12.9413C28.3231 5.88246 22.7663 0.160156 15.9116 0.160156C9.05685 0.160156 3.5 5.88246 3.5 12.9413C3.5 20.0001 9.05685 25.7224 15.9116 25.7224Z" fill="white"/>
<path id="Vector_2" d="M25.1315 16.9093L21.1599 12.8193L25.1315 8.72929C25.6281 8.21805 25.6281 7.41467 25.1315 6.90342L21.609 3.27602C21.1126 2.76477 20.3324 2.76477 19.836 3.27602L15.8643 7.36598L11.8926 3.27602C11.3961 2.76477 10.6159 2.76477 10.1195 3.27602L6.59696 6.90342C6.10049 7.41467 6.10049 8.21805 6.59696 8.72929L10.5687 12.8193L6.59696 16.9093C6.10049 17.4205 6.10049 18.2238 6.59696 18.7351L10.1195 22.3625C10.6159 22.8737 11.3961 22.8737 11.8926 22.3625L15.8643 18.2726L19.836 22.3625C20.3324 22.8737 21.1126 22.8737 21.609 22.3625L25.1315 18.7351C25.6281 18.2238 25.6281 17.4205 25.1315 16.9093Z" fill="#FF003A"/>
<path id="Vector_3" d="M84.5889 0.160156C81.3264 0.160156 78.6787 2.8868 78.6787 6.24641C78.6787 9.60602 81.3264 12.3327 84.5889 12.3327C87.8516 12.3327 90.4994 9.60602 90.4994 6.24641C90.4994 2.8868 87.8516 0.160156 84.5889 0.160156ZM87.3076 7.46365C87.4495 7.60973 87.4495 7.85317 87.3076 7.99925L86.2674 9.0704C86.1256 9.21647 85.8891 9.21647 85.7473 9.0704L84.5889 7.87752L83.4305 9.0704C83.2886 9.21647 83.0523 9.21647 82.9104 9.0704L81.8702 7.99925C81.7284 7.85317 81.7284 7.60973 81.8702 7.46365L83.0285 6.27075L81.8702 5.07785C81.7284 4.93178 81.7284 4.68833 81.8702 4.54226L82.9104 3.47108C83.0523 3.32501 83.2886 3.32501 83.4305 3.47108L84.5889 4.66398L85.7473 3.47108C85.8891 3.32501 86.1256 3.32501 86.2674 3.47108L87.3076 4.54226C87.4495 4.68833 87.4495 4.93178 87.3076 5.07785L86.1492 6.27075L87.3076 7.46365Z" fill="white"/>
<path id="Vector_4" d="M47.5671 15.2529H50.8768C51.0187 15.2529 51.1605 15.3503 51.2078 15.4964L54.8958 25.6483C54.9903 25.8917 54.8012 26.1351 54.5649 26.1351H51.4915C51.3497 26.1351 51.2078 26.0377 51.1605 25.8917L50.8532 25.0152C50.8059 24.8692 50.6641 24.7718 50.5222 24.7718H47.9217C47.7798 24.7718 47.638 24.8692 47.5907 25.0152L47.2834 25.8917C47.2361 26.0377 47.0942 26.1351 46.9524 26.1351H43.9027C43.6663 26.1351 43.4772 25.8917 43.5717 25.6483L47.2361 15.472C47.2834 15.3503 47.4253 15.2529 47.5671 15.2529ZM49.9312 22.2886C50.1676 22.2886 50.3331 22.0452 50.2622 21.8261L49.2456 18.5882H49.1747L48.1818 21.8261C48.1108 22.0695 48.2763 22.2886 48.5127 22.2886H49.9312Z" fill="white"/>
<path id="Vector_5" d="M56.4562 15.2529H58.8912C59.0095 15.2529 59.1041 15.3016 59.1749 15.399L62.0828 19.4402C62.2246 19.635 62.5083 19.635 62.6502 19.4402L65.558 15.399C65.6289 15.3016 65.7235 15.2529 65.8417 15.2529H68.2531C68.4423 15.2529 68.6078 15.4233 68.6078 15.6181V25.7699C68.6078 25.9647 68.4423 26.1351 68.2531 26.1351H65.3926C65.2034 26.1351 65.0379 25.9647 65.0379 25.7699V23.6276L65.0615 21.3878H65.0143L63.4539 23.5789C63.3831 23.6763 63.2885 23.725 63.1702 23.725H61.5154C61.3972 23.725 61.3027 23.6763 61.2317 23.5789L59.6714 21.3635L59.6241 21.3878L59.6477 23.6276V25.7699C59.6477 25.9647 59.4823 26.1351 59.2932 26.1351H56.4562C56.2671 26.1351 56.1016 25.9647 56.1016 25.7699V15.6181C56.1016 15.399 56.2435 15.2529 56.4562 15.2529Z" fill="white"/>
<path id="Vector_6" d="M87.0243 19.5644H83.6435C83.6435 19.5644 82.9106 19.6131 82.9106 18.9558C82.9106 18.2985 83.6435 18.2985 83.6435 18.2985H90.1449C90.3341 18.2985 90.4998 18.128 90.4998 17.9333V15.5962C90.4998 15.4014 90.3341 15.231 90.1449 15.231H83.4308C81.705 15.231 79.9319 15.231 79.9319 18.8341C79.9319 22.0963 81.6341 21.8042 83.3835 21.8042H86.7642C86.7642 21.8042 87.5207 21.8042 87.5207 22.4128C87.5207 23.0214 86.7878 23.0457 86.7878 23.0457H78.3007C78.3007 23.0457 78.3007 23.0457 78.2771 23.0457H72.7687V22.1693C72.7687 21.9746 72.9341 21.8042 73.1232 21.8042H76.5276C76.7167 21.8042 76.8822 21.6338 76.8822 21.439V19.8809C76.8822 19.6862 76.7167 19.5158 76.5276 19.5158H72.7687V18.6637C72.7687 18.4689 72.9341 18.2985 73.1232 18.2985H78.2771C78.4662 18.2985 78.6316 18.128 78.6316 17.9333V15.5962C78.6316 15.4014 78.4662 15.231 78.2771 15.231H70.1681C69.979 15.231 69.8135 15.4014 69.8135 15.5962V25.748C69.8135 25.9428 69.979 26.1133 70.1681 26.1133H87.0006C88.7971 26.1133 90.4762 26.1133 90.4762 22.5102C90.4998 19.2723 88.7029 19.5644 87.0243 19.5644Z" fill="white"/>
<path id="Vector_7" d="M62.9814 12.0644L60.9955 8.65615C60.901 8.51007 60.7591 8.41269 60.5937 8.41269H59.5297C59.2698 8.41269 59.0569 8.63179 59.0569 8.89956V11.7967C59.0569 12.0644 58.8442 12.2836 58.5841 12.2836H55.8654C55.6053 12.2836 55.3926 12.0644 55.3926 11.7967V0.670982C55.3926 0.403187 55.6053 0.184082 55.8654 0.184082H62.6268C65.3455 0.184082 66.7167 2.25341 66.7167 4.29839C66.7167 5.71039 66.0783 7.1224 64.8017 7.8771C64.7781 7.90144 64.7544 7.95013 64.7781 7.97447L66.7876 11.5776C66.9767 11.894 66.7403 12.3079 66.362 12.3079H63.3833C63.2178 12.3079 63.076 12.2349 62.9814 12.0644ZM59.0569 5.56433C59.0569 5.58867 59.0806 5.61302 59.1042 5.61302H61.7757C62.674 5.61302 63.1232 4.95571 63.1232 4.29839C63.1232 3.64107 62.674 2.98375 61.7757 2.98375H59.5297C59.2698 2.98375 59.0569 3.20285 59.0569 3.47065V5.56433Z" fill="white"/>
<path id="Vector_8" d="M76.8825 6.07599C76.8588 6.05165 76.8588 6.05165 76.8588 6.02731C76.8588 6.00296 76.8588 6.00296 76.8825 5.97862C77.4499 5.36999 77.7808 4.39619 77.7808 3.42239C77.7808 1.1583 76.3623 0.160156 74.9439 0.160156H68.4426C68.1116 0.160156 67.8516 0.427951 67.8516 0.768781V11.7241C67.8516 12.0649 68.1116 12.3327 68.4426 12.3327H74.9439C77.0952 12.3327 78.0645 10.5312 78.0645 8.87566C78.0645 7.73145 77.6154 6.70896 76.8825 6.07599ZM73.6673 5.27261H71.114V3.30066C71.114 3.1059 71.2795 2.93549 71.4686 2.93549H73.6673C74.4947 2.93549 74.873 3.51977 74.873 4.10405C74.873 4.68833 74.4947 5.27261 73.6673 5.27261ZM71.4686 7.41497H73.6673C74.4947 7.41497 74.873 7.99925 74.873 8.58353C74.873 9.14348 74.4947 9.7521 73.6673 9.7521H71.114V7.78014C71.114 7.58539 71.2795 7.41497 71.4686 7.41497Z" fill="white"/>
<path id="Vector_9" d="M42.5548 19.6112H38.725C38.4177 19.6112 38.1812 19.8546 38.1812 20.1711V21.5344C38.1812 21.8509 38.4177 22.0944 38.725 22.0944H40.0016C40.0489 22.0944 40.0962 22.1431 40.0962 22.1918V22.8977C40.0962 22.9222 40.0725 22.9708 40.0489 22.9952C39.6943 23.1899 39.2924 23.2873 38.7723 23.2873H38.7014C37.5902 23.2873 37.0228 23.263 36.5028 23.2386C35.4152 23.1656 34.6115 22.1187 34.6115 20.7554V20.7311C34.6115 19.5625 35.3207 18.5887 36.4082 18.2723C36.6682 18.1992 40.8527 18.1749 42.4366 18.1992C42.6967 18.1992 42.8858 17.9801 42.8858 17.7366C42.8858 17.0306 42.8858 15.7647 42.8858 15.7647C42.8858 15.4969 42.6731 15.3022 42.4366 15.3022C40.829 15.3022 36.4791 15.3022 36.3845 15.3265C33.5003 15.5456 31.4199 17.8341 31.4199 20.7311V20.7554C31.4199 23.9446 32.9802 25.9165 35.6989 26.1357C35.8172 26.1357 36.7155 26.16 38.0866 26.16C38.6304 26.16 39.056 26.16 39.1269 26.16C39.1742 26.16 39.2214 26.16 39.2924 26.16C40.7345 26.16 42.9568 24.6749 43.1222 24.2367C43.1459 24.1881 43.1222 20.2199 43.1222 20.2199C43.0986 19.8546 42.8622 19.6112 42.5548 19.6112Z" fill="white"/>
<path id="Vector_10" d="M41.0894 0.160156H32.0822C31.8221 0.160156 31.6094 0.379261 31.6094 0.647056V3.42239C31.6094 3.69018 31.8221 3.90929 32.0822 3.90929H34.2808C34.5408 3.90929 34.7536 4.12839 34.7536 4.39619V11.8458C34.7536 12.1136 34.9664 12.3327 35.2265 12.3327H37.9215C38.1816 12.3327 38.3943 12.1136 38.3943 11.8458V4.42054C38.3943 4.15274 38.6071 3.93363 38.8672 3.93363H41.0658C41.3258 3.93363 41.5386 3.71453 41.5386 3.44674V0.647056C41.5622 0.379261 41.3495 0.160156 41.0894 0.160156Z" fill="white"/>
<path id="Vector_11" d="M50.9475 0.184082C50.6874 0.184082 50.4747 0.403187 50.4747 0.670982V8.12055C50.4747 8.63179 50.2855 8.82656 49.7654 8.82656H47.1885C46.6684 8.82656 46.4793 8.63179 46.4793 8.12055V0.670982C46.4793 0.403187 46.2666 0.184082 46.0065 0.184082H43.2169C42.9568 0.184082 42.7441 0.403187 42.7441 0.670982V8.60744C42.7441 9.89773 43.0514 10.8472 43.6424 11.4315C44.2334 12.0401 45.2027 12.3322 46.4793 12.3322H50.4273C51.704 12.3322 52.6733 12.0158 53.2643 11.4315C53.8553 10.8229 54.1627 9.8734 54.1627 8.60744V0.670982C54.1627 0.403187 53.9499 0.184082 53.6899 0.184082H50.9475Z" fill="white"/>
</g>
<defs>
<clipPath id="clip0_3163_1019">
<rect width="93" height="26" fill="white" transform="translate(0.5 0.160156)"/>
</clipPath>
</defs>
</svg>
